<?xml version="1.0" standalone="no"?>
<!DOCTYPE svg PUBLIC "-//W3C//DTD SVG 20010904//EN"
 "http://www.w3.org/TR/2001/REC-SVG-20010904/DTD/svg10.dtd">
<svg version="1.0" xmlns="http://www.w3.org/2000/svg"
 width="473.000000pt" height="473.000000pt" viewBox="0 0 473.000000 473.000000"
 preserveAspectRatio="xMidYMid meet">
<metadata>
Created by potrace 1.11, written by Peter Selinger 2001-2013
</metadata>
<g transform="translate(0.000000,473.000000) scale(0.100000,-0.100000)"
fill="#000000" stroke="none">
<path d="M0 2370 l0 -1730 2365 0 2365 0 0 1730 0 1730 -2365 0 -2365 0 0
-1730z m2720 995 c0 -97 -107 -215 -195 -215 -21 0 -25 5 -25 28 0 27 38 114
62 142 29 34 107 77 146 79 7 1 12 -12 12 -34z m-279 -250 l71 -24 71 24 c122
43 239 25 306 -49 l24 -26 -38 -37 c-114 -114 -94 -285 45 -374 l25 -16 -40
-79 c-24 -47 -62 -102 -95 -136 -52 -54 -59 -58 -103 -58 -25 0 -69 9 -97 20
-66 26 -91 25 -179 -5 -91 -31 -121 -25 -178 31 -118 119 -196 329 -179 484 9
75 57 171 106 210 80 64 152 73 261 35z m-689 -1689 c-1 -91 -3 -103 -21 -91
-12 7 -15 167 -4 179 18 18 25 -7 25 -88z m158 75 c0 -29 -11 -51 -25 -51 -12
0 -12 16 1 58 6 19 24 14 24 -7z m348 -14 c3 -23 7 -26 31 -21 43 9 63 -17 59
-79 -4 -70 -26 -74 -30 -5 -3 49 -5 53 -28 53 -22 0 -26 -5 -30 -48 -9 -82
-25 -58 -28 41 -2 73 0 93 10 90 7 -3 14 -16 16 -31z m627 24 c7 -12 -12 -24
-25 -16 -11 7 -4 25 10 25 5 0 11 -4 15 -9z m-1065 -26 c0 -8 7 -15 15 -15 8
0 15 -7 15 -15 0 -8 -7 -15 -15 -15 -22 0 -20 -66 3 -79 27 -15 1 -37 -27 -22
-16 9 -21 21 -21 56 0 24 -4 46 -9 49 -12 8 11 56 27 56 6 0 12 -7 12 -15z
m993 -5 c19 -23 22 -40 7 -40 -5 0 -10 -18 -10 -40 0 -22 5 -40 10 -40 6 0 10
-7 10 -15 0 -8 -6 -15 -12 -15 -26 0 -39 18 -40 56 0 21 -5 45 -11 52 -7 9 -6
20 3 37 16 30 21 31 43 5z m-803 -25 c18 -21 3 -32 -22 -16 -15 9 -23 10 -32
1 -13 -13 8 -30 36 -30 10 0 22 -9 28 -20 8 -15 6 -24 -10 -40 -11 -11 -26
-20 -32 -20 -28 0 -57 13 -62 27 -5 12 1 14 35 8 32 -6 40 -4 37 6 -2 7 -18
17 -35 21 -38 10 -46 29 -27 57 18 25 66 28 84 6z m180 0 c18 -21 3 -32 -22
-16 -13 8 -24 9 -30 3 -15 -15 0 -32 27 -32 15 0 29 -9 36 -22 10 -18 8 -24
-11 -40 -29 -23 -52 -23 -81 2 l-24 21 44 -7 c33 -5 42 -3 39 7 -2 7 -19 17
-36 21 -54 14 -39 78 19 78 15 0 32 -7 39 -15z m280 5 c46 -25 29 -112 -25
-126 -42 -10 -75 19 -75 66 0 57 50 87 100 60z m76 -27 c10 -59 17 -62 29 -13
15 63 39 64 55 3 10 -40 14 -45 20 -28 5 11 9 30 9 42 1 12 6 25 11 28 23 14
26 -8 10 -67 -22 -81 -43 -88 -62 -21 l-14 48 -15 -45 c-21 -67 -42 -63 -62 9
-21 74 -21 81 -2 81 8 0 17 -14 21 -37z m337 25 c2 -7 4 -38 3 -68 -1 -42 -5
-55 -16 -55 -11 0 -16 14 -18 54 -2 29 -1 60 2 67 7 17 22 18 29 2z m57 2 c0
-6 8 -5 20 2 16 10 24 10 41 0 16 -10 24 -10 35 -1 7 6 24 9 38 5 19 -5 24
-14 29 -52 2 -25 2 -54 0 -65 -10 -37 -28 -13 -31 40 -3 47 -5 52 -25 49 -19
-3 -22 -10 -25 -56 -4 -70 -26 -65 -30 6 -3 43 -6 52 -21 52 -23 0 -31 -19
-31 -72 0 -27 -4 -38 -12 -36 -8 3 -14 29 -16 71 -2 55 0 67 13 67 8 0 15 -5
15 -10z m291 -11 c32 -32 21 -53 -29 -57 -28 -2 -42 -7 -39 -15 2 -7 20 -11
41 -10 42 3 47 -12 10 -29 -52 -24 -103 33 -82 92 17 45 64 54 99 19z m65 -90
c10 -17 -13 -36 -27 -22 -12 12 -4 33 11 33 5 0 12 -5 16 -11z m-1888 -336 c2
-13 -1 -23 -6 -23 -5 0 -9 8 -8 17 0 10 -7 19 -16 21 -13 2 -18 -3 -18 -17 0
-12 6 -21 13 -21 8 0 9 -3 1 -8 -6 -4 -14 -14 -17 -22 -3 -8 -6 7 -6 33 -1 47
0 48 27 45 19 -2 28 -9 30 -25z m29 5 c-3 -8 -6 -5 -6 6 -1 11 2 17 5 13 3 -3
4 -12 1 -19z m748 5 c-2 -10 -4 -31 -6 -48 -2 -30 -2 -30 -8 5 -4 19 -5 41 -3
48 6 19 21 14 17 -5z m396 -28 c9 -25 13 -45 8 -45 -5 0 -9 7 -9 15 0 21 -37
19 -50 -2 -10 -16 -11 -16 -5 2 20 57 28 75 34 75 3 0 13 -20 22 -45z m186
-22 c-2 -16 -4 -5 -4 22 0 28 2 40 4 28 2 -13 2 -35 0 -50z m510 0 c-2 -16 -4
-5 -4 22 0 28 2 40 4 28 2 -13 2 -35 0 -50z m347 20 c-4 -16 -2 -29 7 -35 12
-8 11 -9 -1 -5 -9 2 -16 18 -18 41 -2 25 0 36 7 31 6 -3 8 -17 5 -32z m-2116
4 c2 -11 -3 -17 -15 -16 -11 0 -13 3 -5 6 10 4 10 8 0 21 -11 13 -11 14 2 10
8 -2 16 -12 18 -21z m56 17 c10 -4 16 -18 16 -35 0 -24 -4 -29 -25 -29 -30 0
-35 29 -5 37 11 3 17 10 14 15 -3 5 -13 7 -21 4 -8 -3 -11 -1 -8 4 7 12 8 12
29 4z m76 -5 c12 -8 10 -9 -7 -4 -29 8 -31 -11 -2 -20 27 -9 19 -29 -12 -32
-14 -1 -17 0 -6 3 21 7 23 24 2 24 -15 0 -21 21 -8 33 9 9 15 9 33 -4z m68 -1
c19 -19 14 -28 -13 -28 -28 0 -34 -16 -7 -23 13 -3 12 -4 -3 -3 -35 2 -30 65
6 66 3 0 10 -5 17 -12z m59 -25 c-3 -10 -5 -4 -5 12 0 17 2 24 5 18 2 -7 2
-21 0 -30z m73 22 c19 -23 8 -50 -20 -50 -16 0 -26 6 -28 18 -4 18 14 47 28
47 4 0 13 -7 20 -15z m107 -26 c1 -24 0 -26 -4 -9 -3 14 -10 31 -16 39 -10 11
-9 13 3 9 9 -3 16 -18 17 -39z m78 -19 c8 0 16 12 18 28 4 25 4 25 6 -5 1 -29
-2 -33 -24 -33 -23 0 -25 4 -23 38 1 36 1 36 5 5 3 -19 10 -33 18 -33z m89 51
c4 -5 -3 -7 -14 -4 -26 7 -26 -14 0 -22 11 -3 20 -11 20 -16 0 -15 -30 -23
-42 -11 -8 8 -4 9 13 6 l24 -6 -24 20 c-13 11 -21 24 -17 31 9 13 33 15 40 2z
m141 -26 c0 -23 -5 -31 -22 -33 -26 -4 -41 31 -22 54 20 24 44 13 44 -21z m48
28 c-7 -2 -14 -19 -14 -36 -1 -25 -3 -27 -6 -9 -6 30 3 52 19 51 10 0 10 -2 1
-6z m72 -3 c-3 -5 -11 -10 -16 -10 -6 0 -7 5 -4 10 3 6 11 10 16 10 6 0 7 -4
4 -10z m95 -5 c9 -10 9 -15 1 -15 -6 0 -11 5 -11 11 0 23 -25 1 -31 -27 l-7
-29 -1 32 c-1 27 8 39 30 42 4 1 12 -6 19 -14z m198 -24 c-2 -17 -10 -27 -23
-30 -11 -2 -23 -8 -27 -15 -4 -6 -8 8 -8 32 0 23 4 42 9 42 5 0 7 -8 4 -19 -6
-23 14 -38 30 -22 9 9 8 16 -1 31 -10 16 -9 18 4 13 9 -3 14 -15 12 -32z m72
24 c16 -19 6 -45 -20 -52 -11 -3 -21 -10 -21 -17 -1 -6 -5 5 -8 24 -5 25 -3
38 8 48 19 16 26 15 41 -3z m100 -5 c9 -17 8 -20 -12 -20 -18 0 -20 2 -8 10 8
5 11 12 8 15 -11 11 -28 -5 -28 -25 0 -10 8 -20 18 -23 13 -3 12 -4 -3 -3 -36
2 -29 65 7 66 4 0 12 -9 18 -20z m95 10 c3 -5 0 -7 -8 -4 -8 3 -18 1 -21 -5
-4 -5 3 -12 14 -16 11 -3 20 -13 20 -21 0 -15 -35 -20 -44 -5 -4 5 4 7 16 4
l23 -5 -24 20 c-13 11 -21 24 -17 31 9 14 33 14 41 1z m75 -5 c16 -19 3 -55
-20 -55 -10 0 -21 -6 -23 -12 -3 -7 -6 6 -6 29 -1 37 6 49 30 52 4 1 12 -6 19
-14z m68 3 c19 -19 14 -28 -13 -28 -14 0 -25 -5 -25 -11 0 -7 11 -9 26 -6 16
3 22 1 16 -5 -17 -17 -47 -4 -50 21 -5 34 24 51 46 29z m80 -8 c5 -13 3 -13
-12 -1 -21 17 -42 1 -32 -24 4 -12 13 -15 28 -12 14 4 18 3 11 -4 -16 -16 -47
-7 -51 14 -8 38 44 63 56 27z m67 10 c-3 -5 -11 -10 -16 -10 -6 0 -7 5 -4 10
3 6 11 10 16 10 6 0 7 -4 4 -10z m154 -3 c12 -16 5 -27 -18 -27 -14 0 -14 2
-1 10 8 5 11 12 8 15 -11 11 -28 -5 -28 -27 0 -15 5 -19 20 -15 11 3 20 1 20
-5 0 -5 -10 -8 -22 -6 -26 3 -35 32 -18 53 15 19 24 19 39 2z m74 -2 c-3 -9
-8 -14 -10 -11 -3 3 -2 9 2 15 9 16 15 13 8 -4z m67 -11 c0 -8 -9 -14 -20 -14
-11 0 -20 -5 -20 -11 0 -6 9 -9 20 -6 11 3 18 1 14 -4 -8 -13 -41 -11 -47 4
-2 6 -1 21 4 32 4 11 8 14 8 8 1 -7 8 -13 17 -13 14 0 14 3 4 15 -11 13 -10
14 4 9 9 -3 16 -12 16 -20z m66 -10 l1 -29 -4 28 c-5 35 -26 30 -34 -9 l-7
-29 -1 32 c-1 30 12 44 34 39 6 -1 10 -16 11 -32z m-2095 -21 c10 3 17 1 13
-4 -3 -5 -13 -9 -23 -9 -20 0 -31 26 -22 50 4 9 7 4 9 -13 3 -23 8 -28 23 -24z
m419 37 c0 -5 -5 -10 -11 -10 -5 0 -7 5 -4 10 3 6 8 10 11 10 2 0 4 -4 4 -10z
m490 -20 c0 -25 -4 -30 -25 -30 -17 0 -25 5 -24 18 0 10 3 12 6 5 6 -15 33
-17 33 -3 0 6 -5 10 -10 10 -6 0 -5 6 2 15 18 19 18 19 18 -15z m777 -17 c-3
-10 -5 -2 -5 17 0 19 2 27 5 18 2 -10 2 -26 0 -35z m73 16 c0 -26 -3 -30 -22
-27 -29 4 -35 28 -9 35 12 3 21 9 21 14 0 5 2 9 5 9 3 0 5 -14 5 -31z m181 -3
c5 3 9 1 9 -5 0 -5 -4 -13 -10 -16 -5 -3 -10 -4 -10 -1 0 2 -2 10 -3 18 -2 7
-2 10 0 5 3 -4 9 -5 14 -1z m-1994 -18 c-3 -8 -6 -5 -6 6 -1 11 2 17 5 13 3
-3 4 -12 1 -19z m440 7 c0 -8 -4 -15 -9 -15 -4 0 -8 7 -8 15 0 8 4 15 8 15 5
0 9 -7 9 -15z m33 6 c0 -6 -4 -12 -8 -15 -5 -3 -9 1 -9 9 0 8 4 15 9 15 4 0 8
-4 8 -9z m-148 -43 c-8 -8 -9 -4 -5 13 4 13 8 18 11 10 2 -7 -1 -18 -6 -23z
m-172 -98 c24 0 36 -18 20 -33 -9 -9 -11 -9 -8 2 2 8 -5 16 -14 19 -12 2 -18
-5 -21 -25 -2 -15 -4 -5 -4 22 -1 28 1 42 4 33 2 -10 13 -18 23 -18z m205 13
c5 -15 4 -16 -6 -5 -18 17 -39 15 -39 -3 0 -8 6 -15 14 -15 23 0 41 -29 27
-43 -10 -9 -11 -9 -6 4 4 10 -3 19 -20 27 -36 17 -33 52 6 52 9 0 20 -8 24
-17z m663 10 c-10 -2 -19 -12 -19 -21 -1 -16 -2 -16 -6 0 -2 9 -12 19 -21 21
-9 3 1 5 23 5 22 0 32 -2 23 -5z m632 -8 c14 -17 0 -21 -17 -4 -18 18 -43 3
-43 -24 0 -34 25 -54 45 -37 9 7 18 10 21 7 3 -3 -4 -10 -15 -17 -30 -16 -61
3 -61 38 0 47 43 70 70 37z m-1556 -45 c2 -23 0 -38 -4 -33 -13 13 -16 93 -4
81 3 -3 7 -25 8 -48z m300 0 c2 -23 0 -38 -4 -33 -13 13 -16 93 -4 81 3 -3 7
-25 8 -48z m302 -26 c-3 -8 -11 -14 -18 -14 -9 0 -9 3 0 12 7 7 13 28 14 48
l1 35 4 -33 c3 -19 2 -40 -1 -48z m109 66 c-4 -6 5 -10 19 -10 14 0 26 -2 26
-4 0 -2 3 -13 6 -23 5 -17 5 -17 -6 0 -17 27 -43 22 -38 -8 3 -14 2 -25 -2
-25 -9 0 -19 68 -11 75 8 9 12 5 6 -5z m276 -10 c15 0 19 -7 18 -32 -2 -31 -2
-31 -6 -5 -2 15 -10 27 -18 27 -8 0 -16 -12 -18 -27 -2 -17 -4 -11 -5 17 0 25
2 39 5 33 2 -7 13 -13 24 -13z m871 -23 c-5 -20 -6 -20 -12 -1 -4 10 -5 25 -2
32 8 22 21 -6 14 -31z m-1931 -9 l-5 -33 -6 30 c-7 32 -3 48 9 41 4 -3 5 -20
2 -38z m1260 29 c-1 -4 -1 -14 -1 -22 0 -26 -15 -16 -16 10 -1 15 2 25 8 23 5
-2 9 -7 9 -11z m-1300 -4 c6 -34 5 -53 -2 -53 -5 0 -9 11 -9 24 0 15 -7 26
-17 29 -14 4 -12 5 5 6 12 0 23 -2 23 -6z m265 -4 c3 -6 0 -15 -7 -20 -23 -15
-34 -10 -13 6 17 13 18 14 1 15 -24 0 -32 -26 -16 -48 13 -15 12 -16 -3 -3
-18 14 -24 42 -11 54 10 11 41 8 49 -4z m220 -7 c1 -7 0 -8 -3 -2 -2 5 -11 10
-19 10 -17 0 -19 -31 -2 -48 7 -7 9 -12 6 -12 -4 0 -14 7 -22 16 -12 12 -13
20 -5 35 11 22 41 22 45 1z m32 -7 c-3 -3 -9 2 -12 12 -6 14 -5 15 5 6 7 -7
10 -15 7 -18z m31 -9 c-12 -26 -29 -35 -29 -16 0 6 4 10 9 10 5 0 13 9 16 21
4 11 9 18 11 16 3 -2 -1 -16 -7 -31z m76 17 c5 -15 4 -16 -6 -5 -22 21 -42 15
-37 -13 3 -13 1 -22 -3 -19 -11 6 -12 38 -2 47 13 13 41 7 48 -10z m173 -9 c2
-11 -5 -27 -15 -34 -15 -12 -16 -12 -5 0 19 21 15 52 -5 48 -11 -2 -18 -12
-17 -25 0 -12 -3 -20 -8 -17 -10 6 -11 38 -1 48 14 14 48 1 51 -20z m142 17
c0 -5 -10 -7 -22 -3 -14 3 -19 2 -14 -6 4 -7 14 -12 22 -12 8 0 14 -7 14 -16
0 -14 -2 -14 -15 -1 -8 9 -20 17 -27 19 -6 2 -8 10 -4 16 8 14 46 16 46 3z
m254 -6 c3 -8 1 -15 -4 -15 -6 0 -10 5 -10 10 0 6 -7 10 -16 10 -12 0 -15 -7
-12 -25 3 -13 1 -22 -3 -19 -11 6 -12 38 -2 47 12 12 41 7 47 -8z m66 -15 c0
-16 -4 -30 -9 -30 -4 0 -6 11 -4 24 4 17 0 25 -14 29 -15 4 -14 5 5 6 18 1 22
-4 22 -29z m115 13 c5 -15 4 -16 -6 -5 -22 21 -42 15 -37 -13 3 -13 1 -22 -3
-19 -11 6 -12 38 -2 47 13 13 41 7 48 -10z m39 9 c-7 -4 -14 -18 -17 -32 -4
-21 -4 -20 -6 8 -1 24 3 32 17 32 11 0 13 -3 6 -8z m66 -22 c0 -16 -2 -30 -4
-30 -2 0 -6 14 -8 30 -3 17 -1 30 4 30 4 0 8 -13 8 -30z m66 -3 c1 -25 1 -25
-3 -2 -6 33 -33 33 -33 0 0 -14 -3 -25 -7 -25 -5 0 -8 14 -8 30 0 27 3 30 25
28 20 -2 25 -9 26 -31z m156 3 c3 -16 1 -30 -4 -30 -4 0 -8 14 -8 30 0 17 2
30 4 30 2 0 6 -13 8 -30z m48 0 c0 -16 -4 -30 -8 -30 -5 0 -7 14 -4 30 2 17 6
30 8 30 2 0 4 -13 4 -30z m70 20 c0 -5 -7 -7 -16 -3 -9 3 -20 0 -25 -8 -7 -11
-9 -11 -9 4 0 12 8 17 25 17 14 0 25 -4 25 -10z m78 -10 c4 -12 2 -13 -9 -2
-31 29 -57 -6 -26 -37 10 -10 9 -11 -5 -6 -18 7 -25 45 -11 59 12 11 46 2 51
-14z m34 8 c-5 -7 -12 -22 -15 -33 -3 -13 -5 -9 -6 13 -1 23 3 32 15 32 12 0
14 -3 6 -12z m75 -35 c-3 -10 -5 -2 -5 17 0 19 2 27 5 18 2 -10 2 -26 0 -35z
m72 15 c-2 -31 -2 -31 -6 -5 -2 15 -10 27 -18 27 -8 0 -16 -12 -18 -27 -4 -26
-4 -26 -6 5 -1 28 2 32 24 32 22 0 25 -4 24 -32z m76 11 c5 -14 1 -27 -11 -38
-17 -15 -17 -15 -5 1 16 21 8 48 -15 48 -12 0 -15 -7 -12 -25 3 -13 1 -22 -3
-19 -11 6 -12 38 -2 47 14 14 42 6 48 -14z m-1138 -31 c-3 -7 -5 -2 -5 12 0
14 2 19 5 13 2 -7 2 -19 0 -25z m-1045 15 c-10 -4 -10 -8 -1 -19 8 -9 8 -14 1
-14 -15 0 -25 18 -17 30 3 6 12 10 18 9 8 0 8 -2 -1 -6z m1254 -12 c0 -11 -4
-17 -8 -15 -4 3 -8 12 -8 20 0 8 4 14 8 14 4 0 8 -9 8 -19z m-880 -19 c-4 -3
-14 2 -24 12 -16 18 -16 18 6 6 13 -6 21 -14 18 -18z m1461 16 c3 6 10 12 16
12 7 0 5 -6 -4 -15 -16 -16 -49 -11 -49 7 0 6 7 4 17 -3 13 -11 17 -11 20 -1z
m173 -8 c0 -5 -2 -10 -4 -10 -3 0 -8 5 -11 10 -3 6 -1 10 4 10 6 0 11 -4 11
-10z"/>
<path d="M2404 1426 c-11 -29 1 -61 24 -64 24 -4 43 28 34 60 -5 22 -50 25
-58 4z"/>
<path d="M3160 1431 c0 -6 5 -13 10 -16 14 -9 52 4 45 16 -8 12 -55 12 -55 0z"/>
<path d="M2550 1016 c0 -9 5 -16 10 -16 6 0 10 4 10 9 0 6 -4 13 -10 16 -5 3
-10 -1 -10 -9z"/>
<path d="M1540 980 c0 -5 7 -10 15 -10 8 0 15 5 15 10 0 6 -7 10 -15 10 -8 0
-15 -4 -15 -10z"/>
<path d="M1675 1010 c-3 -5 1 -10 9 -10 9 0 16 5 16 10 0 6 -4 10 -9 10 -6 0
-13 -4 -16 -10z"/>
<path d="M1803 1004 c-8 -21 13 -42 28 -27 13 13 5 43 -11 43 -6 0 -13 -7 -17
-16z"/>
<path d="M2214 1006 c-7 -19 3 -36 22 -36 10 0 14 8 12 22 -4 26 -26 36 -34
14z"/>
<path d="M2707 1013 c-13 -12 -7 -43 7 -43 19 0 28 14 20 34 -7 17 -16 20 -27
9z"/>
<path d="M2977 1014 c-15 -15 -7 -45 11 -42 9 2 17 12 17 22 0 20 -16 31 -28
20z"/>
<path d="M3045 1010 c-3 -5 3 -10 15 -10 12 0 18 5 15 10 -3 6 -10 10 -15 10
-5 0 -12 -4 -15 -10z"/>
<path d="M3210 980 c0 -5 7 -10 15 -10 8 0 15 5 15 10 0 6 -7 10 -15 10 -8 0
-15 -4 -15 -10z"/>
</g>
</svg>
